<svg width="13" height="9" viewBox="0 0 13 9" fill="none" xmlns="http://www.w3.org/2000/svg">
  <path d="M1.86 8.304C2.076 8.304 2.22 8.268 2.292 8.196C2.372 8.116 2.412 7.944 2.412 7.68V6.3H0V5.628L2.508 0.156H3.156V5.556H3.924L3.852 6.3H3.156V7.692C3.156 7.948 3.196 8.116 3.276 8.196C3.364 8.268 3.508 8.304 3.708 8.304V8.556H1.86V8.304ZM2.412 5.556V1.068L0.432 5.496V5.556H2.412Z" fill="black"/>
  <path d="M6.27516 0.336C5.94716 0.336 5.70716 0.692 5.55516 1.404C5.41116 2.108 5.33916 3.064 5.33916 4.272C5.33916 5.512 5.41116 6.508 5.55516 7.26C5.70716 8.004 5.94716 8.376 6.27516 8.376C6.61116 8.376 6.85116 8.004 6.99516 7.26C7.13916 6.516 7.21116 5.52 7.21116 4.272C7.21116 1.648 6.89916 0.336 6.27516 0.336ZM6.27516 0C6.60316 0 6.89916 0.18 7.16316 0.54C7.42716 0.892 7.63116 1.392 7.77516 2.04C7.92716 2.68 8.00316 3.424 8.00316 4.272C8.00316 5.168 7.93116 5.952 7.78716 6.624C7.64316 7.288 7.43916 7.8 7.17516 8.16C6.91116 8.52 6.61116 8.7 6.27516 8.7C5.93916 8.7 5.63916 8.52 5.37516 8.16C5.11116 7.8 4.90716 7.288 4.76316 6.624C4.61916 5.952 4.54716 5.168 4.54716 4.272C4.54716 3.424 4.61916 2.68 4.76316 2.04C4.91516 1.392 5.12316 0.892 5.38716 0.54C5.65116 0.18 5.94716 0 6.27516 0Z" fill="black"/>
  <path d="M10.4264 8.304C10.6424 8.304 10.7864 8.268 10.8584 8.196C10.9384 8.116 10.9784 7.944 10.9784 7.68V6.3H8.56641V5.628L11.0744 0.156H11.7224V5.556H12.4904L12.4184 6.3H11.7224V7.692C11.7224 7.948 11.7624 8.116 11.8424 8.196C11.9304 8.268 12.0744 8.304 12.2744 8.304V8.556H10.4264V8.304ZM10.9784 5.556V1.068L8.99841 5.496V5.556H10.9784Z" fill="black"/>
</svg>
