<svg width="82" height="107" viewBox="0 0 82 107" fill="none" xmlns="http://www.w3.org/2000/svg">
<path d="M45.056 31.104C41.984 31.104 38.9973 33.28 36.096 37.632C33.1947 41.8987 30.848 47.5733 29.056 54.656C27.6053 60.2027 26.88 64.768 26.88 68.352C26.88 70.9973 27.2213 73.088 27.904 74.624C28.672 76.0747 29.7387 76.8 31.104 76.8C32.8107 76.8 34.816 75.2213 37.12 72.064C39.424 68.8213 41.6 64.9813 43.648 60.544C45.696 56.0213 47.1467 52.1387 48 48.896L49.792 41.728C50.1333 40.192 50.304 39.0827 50.304 38.4C50.304 36.352 49.8347 34.6453 48.896 33.28C47.9573 31.8293 46.6773 31.104 45.056 31.104ZM44.544 25.984C45.7387 25.984 46.7627 26.1547 47.616 26.496C48.4693 26.8373 49.408 27.3493 50.432 28.032C51.8827 28.9707 53.12 29.44 54.144 29.44C55.8507 29.44 57.344 28.7147 58.624 27.264L60.672 27.136L52.096 60.672C50.7307 65.9627 50.048 69.888 50.048 72.448C50.048 75.6053 51.0293 77.184 52.992 77.184C55.4667 77.184 58.4107 75.2213 61.824 71.296C65.3227 67.2853 68.3093 62.1653 70.784 55.936C73.344 49.6213 74.624 43.264 74.624 36.864C74.624 30.5493 73.472 24.8747 71.168 19.84C68.9493 14.72 65.7067 10.6667 61.44 7.68C57.1733 4.69334 52.1387 3.2 46.336 3.2C38.3147 3.2 31.0187 6.05867 24.448 11.776C17.9627 17.408 12.8427 24.8747 9.088 34.176C5.41867 43.392 3.584 53.0347 3.584 63.104C3.584 71.2107 4.94933 78.2933 7.68 84.352C10.4107 90.4107 14.2933 95.0613 19.328 98.304C24.3627 101.547 30.2507 103.168 36.992 103.168C46.208 103.168 54.4 100.053 61.568 93.824C68.8213 87.5947 74.496 78.9333 78.592 67.84H81.536C77.44 79.872 71.4667 89.3013 63.616 96.128C55.8507 102.955 46.9333 106.368 36.864 106.368C29.3547 106.368 22.8267 104.533 17.28 100.864C11.7333 97.28 7.46667 92.2027 4.48 85.632C1.49333 78.976 0 71.296 0 62.592C0 51.4987 2.09067 41.1733 6.272 31.616C10.4533 21.9733 16.0853 14.2933 23.168 8.576C30.336 2.85867 38.1013 0 46.464 0C52.864 0 58.4107 1.62133 63.104 4.864C67.7973 8.02133 71.3813 12.416 73.856 18.048C76.416 23.5947 77.696 29.824 77.696 36.736C77.696 44.16 76.2027 51.3707 73.216 58.368C70.3147 65.3653 66.688 71.04 62.336 75.392C58.0693 79.744 54.0587 81.92 50.304 81.92C45.3547 81.92 42.88 78.9333 42.88 72.96C42.88 70.5707 43.3493 67.4987 44.288 63.744H43.648C37.8453 76.8 32 83.328 26.112 83.328C23.808 83.328 21.9733 82.2187 20.608 80C19.328 77.696 18.688 74.4533 18.688 70.272C18.688 65.408 19.4133 60.288 20.864 54.912C22.3147 49.3653 24.3627 44.416 27.008 40.064C29.7387 35.6267 32.6827 32.1707 35.84 29.696C38.9973 27.2213 41.8987 25.984 44.544 25.984Z" fill="black"/>
</svg>
