<svg width="500" height="500" viewBox="0 0 500 500" fill="none" xmlns="http://www.w3.org/2000/svg">
<path d="M247.083 14C306.083 14 350.333 38.5833 379.833 87.7499C409.333 133.639 424.083 191 424.083 259.833C420.806 322.111 402.778 374.556 370 417.167C340.5 459.778 299.528 482.722 247.083 486C191.361 486 148.75 464.694 119.25 422.083C89.75 379.472 75 327.028 75 264.75C75 195.917 89.75 136.917 119.25 87.7499C148.75 38.5833 191.361 14 247.083 14Z" fill="black"/>
<path d="M320.083 175.024C318.686 157.422 316.87 144.989 314.635 137.724C312.4 130.18 308.209 125.011 302.062 122.217C295.915 119.423 285.857 118.026 271.886 118.026C266.019 118.026 263.085 121.938 263.085 129.761V360.268C263.085 371.165 264.901 378.43 268.534 382.062C272.445 385.415 279.011 387.091 288.232 387.091V396.311H212.374V387.091C221.594 387.091 228.02 385.415 231.652 382.062C235.285 378.43 237.101 371.165 237.101 360.268V129.761C237.101 121.938 234.167 118.026 228.3 118.026C214.329 118.026 204.271 119.423 198.124 122.217C191.977 125.011 187.786 130.18 185.551 137.724C183.316 144.989 181.5 157.422 180.103 175.024H171.721L175.492 102.938H324.694L328.466 175.024H320.083Z" fill="white"/>
</svg>
