<svg width="102" height="44" viewBox="0 0 102 44" fill="none" xmlns="http://www.w3.org/2000/svg">
<path d="M21.8064 10.5952C21.6011 8.008 21.3341 6.18053 21.0056 5.1128C20.6771 4.004 20.0611 3.24427 19.1576 2.8336C18.2541 2.42293 16.7757 2.2176 14.7224 2.2176C13.86 2.2176 13.4288 2.79253 13.4288 3.9424V37.8224C13.4288 39.424 13.6957 40.4917 14.2296 41.0256C14.8045 41.5184 15.7696 41.7648 17.1248 41.7648V43.12H5.9752V41.7648C7.3304 41.7648 8.27493 41.5184 8.8088 41.0256C9.34267 40.4917 9.6096 39.424 9.6096 37.8224V3.9424C9.6096 2.79253 9.1784 2.2176 8.316 2.2176C6.26267 2.2176 4.78427 2.42293 3.8808 2.8336C2.97733 3.24427 2.36133 4.004 2.0328 5.1128C1.70427 6.18053 1.43733 8.008 1.232 10.5952H0L0.5544 0H22.484L23.0384 10.5952H21.8064Z" fill="black"/>
<path d="M27.1002 40.7792C28.2911 40.7792 29.3178 40.0811 30.1802 38.6848C31.0426 37.2475 31.4738 35.6253 31.4738 33.8184V26.7344C29.174 27.6379 27.4082 28.9931 26.1762 30.8C24.9442 32.5659 24.3282 34.5371 24.3282 36.7136C24.3282 37.9456 24.5746 38.9312 25.0674 39.6704C25.5602 40.4096 26.2378 40.7792 27.1002 40.7792ZM38.681 40.4096C37.8186 41.5184 37.0383 42.3808 36.3402 42.9968C35.642 43.5717 34.9439 43.8592 34.2458 43.8592C33.5066 43.8592 32.87 43.5101 32.3362 42.812C31.8434 42.1139 31.5559 40.964 31.4738 39.3624H31.2274C29.8722 42.4013 28.0447 43.9208 25.745 43.9208C24.1844 43.9208 22.9524 43.2432 22.049 41.888C21.1455 40.5328 20.6938 38.9517 20.6938 37.1448C20.6938 33.9827 21.6383 31.3749 23.5274 29.3216C25.4164 27.2683 28.0652 25.7488 31.4738 24.7632V23.9008C31.4738 21.1083 31.1247 18.9933 30.4266 17.556C29.7695 16.0776 28.825 15.3384 27.593 15.3384C26.8948 15.3384 26.2994 15.5643 25.8066 16.016C25.3548 16.4677 25.129 17.0837 25.129 17.864C25.129 18.1925 25.1495 18.5005 25.1906 18.788C25.2316 19.0755 25.2727 19.3629 25.3138 19.6504C25.478 20.3075 25.5602 20.944 25.5602 21.56C25.5602 22.3403 25.3959 22.9768 25.0674 23.4696C24.7799 23.9624 24.3692 24.2088 23.8354 24.2088C23.2194 24.2088 22.706 23.9008 22.2954 23.2848C21.9258 22.6688 21.741 21.7859 21.741 20.636C21.741 19.3629 22.049 18.172 22.665 17.0632C23.281 15.9133 24.1228 14.9893 25.1906 14.2912C26.2994 13.5931 27.5314 13.244 28.8866 13.244C30.8578 13.244 32.3772 14.0653 33.445 15.708C34.5538 17.3507 35.1082 19.7325 35.1082 22.8536V37.3912C35.1082 38.6643 35.1698 39.5883 35.293 40.1632C35.4162 40.7381 35.642 41.0256 35.9706 41.0256C36.258 41.0256 36.5455 40.9024 36.833 40.656C37.1615 40.3685 37.5516 39.9373 38.0034 39.3624L38.681 40.4096Z" fill="black"/>
<path d="M54.2836 14.784C54.6532 15.2768 54.838 15.8517 54.838 16.5088C54.838 17.3301 54.6532 17.9872 54.2836 18.48C53.955 18.9317 53.5649 19.1576 53.1132 19.1576C52.4972 19.1576 52.0044 18.8291 51.6348 18.172C51.3062 17.6792 50.9572 17.2069 50.5876 16.7552C50.259 16.2624 49.8894 16.016 49.4788 16.016C48.8217 16.016 48.2057 16.4883 47.6308 17.4328C47.0558 18.3363 46.5836 19.6093 46.214 21.252C45.8444 22.8536 45.6596 24.6811 45.6596 26.7344V38.8696C45.6596 39.7731 45.7622 40.4507 45.9676 40.9024C46.1729 41.3131 46.4398 41.58 46.7684 41.7032C47.138 41.7853 47.6513 41.8264 48.3084 41.8264V43.12H39.3148V41.8264C40.0129 41.8264 40.5262 41.7853 40.8548 41.7032C41.2244 41.58 41.4913 41.3131 41.6556 40.9024C41.8609 40.4917 41.9636 39.8141 41.9636 38.8696V20.02C41.9636 18.9523 41.7788 18.2747 41.4092 17.9872C41.0806 17.6997 40.4441 17.556 39.4996 17.556V16.2624C41.7582 16.2624 43.4625 15.2973 44.6124 13.3672H45.6596V17.4328H45.906C46.4398 16.1597 47.179 15.1536 48.1236 14.4144C49.0681 13.6752 50.0537 13.3056 51.0804 13.3056C52.4766 13.3056 53.5444 13.7984 54.2836 14.784Z" fill="black"/>
<path d="M62.1481 13.3056C62.6409 13.3056 63.1337 13.3877 63.6265 13.552C64.1193 13.7163 64.5505 13.8805 64.9201 14.0448C65.4951 14.3323 65.9057 14.476 66.1521 14.476C66.5217 14.476 66.7681 14.0859 66.8913 13.3056H68.0001L68.2465 22.6688H67.1993C66.994 20.7387 66.5012 19.0344 65.7209 17.556C64.9817 16.0776 63.8729 15.3384 62.3945 15.3384C61.4911 15.3384 60.7724 15.708 60.2385 16.4472C59.7047 17.1864 59.4377 18.1309 59.4377 19.2808C59.4377 20.636 59.7457 21.9091 60.3617 23.1C61.0188 24.2499 61.9839 25.4203 63.2569 26.6112L66.1521 29.4448C67.1788 30.5536 67.9385 31.6624 68.4313 32.7712C68.9652 33.8389 69.2321 35.112 69.2321 36.5904C69.2321 38.6027 68.6983 40.3275 67.6305 41.7648C66.6039 43.1611 65.2076 43.8592 63.4417 43.8592C62.4972 43.8592 61.6964 43.736 61.0393 43.4896C60.3823 43.2432 59.7457 42.9557 59.1297 42.6272C58.5548 42.2576 58.1647 42.0728 57.9593 42.0728C57.5897 42.0728 57.3228 42.4219 57.1585 43.12H56.1113L55.5569 33.0176H56.6041C57.1791 35.8923 57.9183 38.0277 58.8217 39.424C59.7663 40.7792 60.9572 41.4568 62.3945 41.4568C63.4212 41.4568 64.2425 41.0667 64.8585 40.2864C65.4745 39.5061 65.7825 38.5616 65.7825 37.4528C65.7825 36.5083 65.6183 35.6664 65.2897 34.9272C65.0023 34.188 64.5095 33.4283 63.8113 32.648L60.7313 29.6296C59.2529 28.2744 58.1441 26.8987 57.4049 25.5024C56.6657 24.0651 56.2961 22.5045 56.2961 20.8208C56.2961 18.8085 56.8095 17.0632 57.8361 15.5848C58.8628 14.0653 60.3001 13.3056 62.1481 13.3056Z" fill="black"/>
<path d="M91.4953 40.348C90.5097 41.7443 89.6678 42.6888 88.9697 43.1816C88.3126 43.6744 87.5939 43.9208 86.8137 43.9208C85.9513 43.9208 85.2326 43.6539 84.6577 43.12C84.1238 42.5451 83.631 41.6211 83.1793 40.348L79.0521 28.644L77.6353 31.0464V39.0544C77.6353 40.2453 77.8406 41.0051 78.2513 41.3336C78.6619 41.6621 79.3395 41.8264 80.284 41.8264V43.12H71.2905V41.8264C72.2761 41.8264 72.9536 41.6621 73.3232 41.3336C73.7339 41.0051 73.9393 40.2453 73.9393 39.0544V6.6528C73.9393 5.58507 73.7544 4.90747 73.3848 4.62C73.0563 4.33254 72.4198 4.1888 71.4753 4.1888V2.8952C73.7339 2.8952 75.4382 1.93013 76.5881 0H77.6353V27.0424L78.0049 26.9808L83.2409 18.2952C83.6926 17.5149 83.9184 16.9195 83.9184 16.5088C83.9184 15.8107 83.2819 15.4205 82.0089 15.3384V14.1064H89.9553V15.3384C88.559 15.3384 87.4707 15.7491 86.6905 16.5704C85.9102 17.3507 84.9041 18.788 83.6721 20.8824L81.4545 24.64L86.5057 38.6232C86.9574 39.6499 87.3065 40.3685 87.5529 40.7792C87.8403 41.1488 88.1894 41.3336 88.6001 41.3336C88.9286 41.3336 89.2161 41.2104 89.4625 40.964C89.7499 40.6765 90.1811 40.1837 90.7561 39.4856L91.4953 40.348Z" fill="black"/>
<path d="M96.6557 3.388C97.3949 3.388 97.9493 3.696 98.3189 4.312C98.6885 4.88693 98.8733 5.6056 98.8733 6.468C98.8322 7.24827 98.6064 7.90533 98.1957 8.4392C97.8261 8.97307 97.3128 9.26054 96.6557 9.3016C95.9576 9.3016 95.4237 9.03467 95.0541 8.5008C94.6845 7.96693 94.4997 7.30987 94.4997 6.5296C94.4997 5.6672 94.6845 4.928 95.0541 4.312C95.4237 3.696 95.9576 3.388 96.6557 3.388ZM98.5653 38.8696C98.5653 39.7731 98.668 40.4507 98.8733 40.9024C99.0786 41.3131 99.3456 41.58 99.6741 41.7032C100.044 41.7853 100.557 41.8264 101.214 41.8264V43.12H92.2205V41.8264C92.9186 41.8264 93.432 41.7853 93.7605 41.7032C94.1301 41.58 94.397 41.3131 94.5613 40.9024C94.7666 40.4917 94.8693 39.8141 94.8693 38.8696V20.3896C94.8693 19.3219 94.6845 18.6237 94.3149 18.2952C93.9453 17.9256 93.3088 17.7408 92.4053 17.7408V16.4472C94.664 16.4472 96.3682 15.4821 97.5181 13.552H98.5653V38.8696Z" fill="black"/>
</svg>
