<svg width="1349" height="571" viewBox="0 0 1349 571" fill="none" xmlns="http://www.w3.org/2000/svg">
<path d="M281.888 137.745C279.234 104.109 275.783 80.3511 271.536 66.4698C267.289 52.0547 259.326 42.1776 247.648 36.8387C235.969 31.4998 216.857 28.8303 190.314 28.8303C179.166 28.8303 173.592 36.3048 173.592 51.2539V491.717C173.592 512.539 177.043 526.42 183.944 533.36C191.376 539.767 203.851 542.971 221.37 542.971V560.589H77.2405V542.971C94.759 542.971 106.969 539.767 113.87 533.36C120.771 526.42 124.222 512.539 124.222 491.717V51.2539C124.222 36.3048 118.648 28.8303 107.5 28.8303C80.9566 28.8303 61.8455 31.4998 50.1665 36.8387C38.4876 42.1776 30.5246 52.0547 26.2777 66.4698C22.0308 80.3511 18.5802 104.109 15.9259 137.745H0L7.16665 0H290.647L297.814 137.745H281.888Z" fill="black"/>
<path d="M358.283 530.157C373.678 530.157 386.949 521.081 398.097 502.928C409.245 484.242 414.819 463.153 414.819 439.662V347.565C385.091 359.311 362.264 376.929 346.338 400.421C330.412 423.378 322.449 449.005 322.449 477.302C322.449 493.318 325.635 506.132 332.005 515.742C338.375 525.352 347.135 530.157 358.283 530.157ZM507.986 525.352C496.838 539.767 486.751 550.979 477.727 558.987C468.702 566.462 459.677 570.199 450.653 570.199C441.097 570.199 432.869 565.661 425.968 556.585C419.597 547.509 415.881 532.56 414.819 511.738H411.634C394.116 551.246 370.492 571 340.764 571C320.591 571 304.665 562.191 292.986 544.572C281.307 526.954 275.468 506.399 275.468 482.907C275.468 441.798 287.678 407.895 312.098 381.201C336.517 354.506 370.758 334.752 414.819 321.938V310.727C414.819 274.422 410.307 246.926 401.283 228.24C392.789 209.02 380.579 199.41 364.653 199.41C355.628 199.41 347.931 202.346 341.56 208.219C335.721 214.092 332.801 222.1 332.801 232.244C332.801 236.515 333.067 240.519 333.597 244.257C334.128 247.994 334.659 251.731 335.19 255.468C337.314 264.011 338.375 272.286 338.375 280.295C338.375 290.439 336.252 298.714 332.005 305.121C328.289 311.527 322.98 314.731 316.079 314.731C308.116 314.731 301.48 310.727 296.172 302.718C291.394 294.71 289.005 283.231 289.005 268.282C289.005 251.731 292.986 236.248 300.949 221.833C308.912 206.884 319.795 194.871 333.597 185.795C347.931 176.719 363.857 172.181 381.375 172.181C406.857 172.181 426.498 182.859 440.301 204.215C454.634 225.57 461.801 256.536 461.801 297.112V486.111C461.801 502.662 462.597 514.674 464.19 522.149C465.782 529.623 468.702 533.36 472.949 533.36C476.665 533.36 480.381 531.759 484.097 528.555C488.344 524.818 493.387 519.212 499.227 511.738L507.986 525.352Z" fill="black"/>
<path d="M717.641 192.202C722.419 198.609 724.808 206.083 724.808 214.626C724.808 225.303 722.419 233.846 717.641 240.252C713.395 246.125 708.351 249.062 702.512 249.062C694.549 249.062 688.179 244.791 683.401 236.248C679.154 229.842 674.642 223.702 669.864 217.829C665.617 211.422 660.839 208.219 655.531 208.219C647.037 208.219 639.074 214.359 631.642 226.638C624.21 238.384 618.105 254.935 613.327 276.29C608.549 297.112 606.16 320.871 606.16 347.565V505.331C606.16 517.077 607.487 525.886 610.142 531.759C612.796 537.098 616.247 540.568 620.494 542.17C625.271 543.237 631.907 543.771 640.401 543.771V560.589H524.142V543.771C533.167 543.771 539.802 543.237 544.049 542.17C548.827 540.568 552.278 537.098 554.401 531.759C557.055 526.42 558.383 517.611 558.383 505.331V260.273C558.383 246.392 555.994 237.583 551.216 233.846C546.969 230.108 538.741 228.24 526.531 228.24V211.422C555.728 211.422 577.759 198.876 592.623 173.783H606.16V226.638H609.345C616.247 210.087 625.802 197.007 638.012 187.397C650.222 177.787 662.963 172.982 676.234 172.982C694.284 172.982 708.086 179.389 717.641 192.202Z" fill="black"/>
<path d="M827.269 172.982C833.639 172.982 840.009 174.05 846.38 176.185C852.75 178.321 858.324 180.456 863.102 182.592C870.534 186.329 875.843 188.198 879.028 188.198C883.806 188.198 886.991 183.126 888.583 172.982H902.917L906.102 294.71H892.565C889.911 269.617 883.54 247.46 873.454 228.24C863.898 209.02 849.565 199.41 830.454 199.41C818.775 199.41 809.485 204.215 802.584 213.825C795.682 223.435 792.232 235.714 792.232 250.663C792.232 268.282 796.213 284.833 804.176 300.316C812.67 315.265 825.145 330.481 841.602 345.964L879.028 382.802C892.299 397.217 902.12 411.633 908.491 426.048C915.392 439.929 918.843 456.48 918.843 475.7C918.843 501.861 911.941 524.284 898.139 542.971C884.867 561.123 866.818 570.199 843.991 570.199C831.781 570.199 821.429 568.597 812.935 565.394C804.442 562.191 796.213 558.454 788.25 554.182C780.818 549.377 775.775 546.975 773.121 546.975C768.343 546.975 764.892 551.513 762.769 560.589H749.232L742.065 429.251H755.602C763.034 466.624 772.59 494.386 784.269 512.539C796.479 530.157 811.874 538.966 830.454 538.966C843.725 538.966 854.343 533.894 862.306 523.75C870.269 513.606 874.25 501.327 874.25 486.912C874.25 474.632 872.127 463.687 867.88 454.077C864.164 444.467 857.793 434.59 848.769 424.446L808.954 385.205C789.843 367.586 775.51 349.701 765.954 331.548C756.399 312.862 751.621 292.574 751.621 270.684C751.621 244.524 758.257 221.833 771.528 202.613C784.8 182.859 803.38 172.982 827.269 172.982Z" fill="black"/>
<path d="M1214.6 524.551C1201.86 542.704 1190.97 554.983 1181.95 561.39C1173.46 567.797 1164.17 571 1154.08 571C1142.93 571 1133.64 567.53 1126.21 560.589C1119.31 553.115 1112.94 541.102 1107.1 524.551L1053.75 372.391L1035.43 403.624V507.734C1035.43 523.216 1038.09 533.094 1043.39 537.365C1048.7 541.636 1057.46 543.771 1069.67 543.771V560.589H953.413V543.771C966.154 543.771 974.913 541.636 979.691 537.365C984.999 533.094 987.654 523.216 987.654 507.734V86.4909C987.654 72.6096 985.265 63.8004 980.487 60.0631C976.24 56.3259 968.012 54.4572 955.802 54.4572V37.6395C984.999 37.6395 1007.03 25.093 1021.89 0H1035.43V351.569L1040.21 350.769L1107.89 237.85C1113.73 227.706 1116.65 219.964 1116.65 214.626C1116.65 205.549 1108.42 200.477 1091.97 199.41V183.393H1194.69V199.41C1176.64 199.41 1162.57 204.748 1152.49 215.426C1142.4 225.57 1129.39 244.257 1113.47 271.485L1084.8 320.337L1150.1 502.128C1155.94 515.475 1160.45 524.818 1163.63 530.157C1167.35 534.962 1171.86 537.365 1177.17 537.365C1181.42 537.365 1185.13 535.763 1188.32 532.56C1192.04 528.822 1197.61 522.416 1205.04 513.339L1214.6 524.551Z" fill="black"/>
<path d="M1289.27 44.0463C1298.82 44.0463 1305.99 48.0505 1310.77 56.0589C1315.55 63.5334 1317.94 72.8766 1317.94 84.0884C1317.4 94.2324 1314.48 102.775 1309.18 109.715C1304.4 116.656 1297.76 120.393 1289.27 120.927C1280.24 120.927 1273.34 117.457 1268.56 110.516C1263.79 103.575 1261.4 95.0332 1261.4 84.8892C1261.4 73.6774 1263.79 64.0673 1268.56 56.0589C1273.34 48.0505 1280.24 44.0463 1289.27 44.0463ZM1313.95 505.331C1313.95 517.077 1315.28 525.886 1317.94 531.759C1320.59 537.098 1324.04 540.568 1328.29 542.17C1333.06 543.237 1339.7 543.771 1348.19 543.771V560.589H1231.94V543.771C1240.96 543.771 1247.6 543.237 1251.84 542.17C1256.62 540.568 1260.07 537.098 1262.19 531.759C1264.85 526.42 1266.18 517.611 1266.18 505.331V265.079C1266.18 251.197 1263.79 242.121 1259.01 237.85C1254.23 233.045 1246 230.642 1234.32 230.642V213.825C1263.52 213.825 1285.55 201.278 1300.42 176.185H1313.95V505.331Z" fill="black"/>
</svg>
