<svg width="515" height="371" viewBox="0 0 515 371" fill="none" xmlns="http://www.w3.org/2000/svg">
<path d="M20.4825 217.8C12.9008 164.599 29.4207 121.375 70.0097 88.4092C107.484 56.0204 157.071 35.4953 218.633 26.722L218.685 26.7145L218.737 26.7101C274.934 21.6967 324.331 31.1405 366.835 55.138C409.047 76.2807 435.046 110.359 444.738 157.214L444.75 157.274L444.759 157.336C451.915 207.549 438.168 248.872 403.443 281.033C368.887 313.039 323.654 332.968 267.876 340.917C206.293 349.693 151.505 344.035 103.583 323.838C55.4318 303.545 27.6566 268.141 20.4825 217.8Z" stroke="black" stroke-width="9"/>
<path d="M211.445 131.095C208.698 131.095 206.666 131.424 205.347 132.083C204.029 132.633 203.095 133.731 202.545 135.38C201.996 137.028 201.721 139.61 201.721 143.126V228.826C201.721 233.111 202.436 235.968 203.864 237.396C205.402 238.715 207.929 239.374 211.445 239.374V243H181.615V239.374C185.24 239.374 187.768 238.715 189.196 237.396C190.624 235.968 191.338 233.111 191.338 228.826V143.126C191.338 139.61 191.064 137.028 190.514 135.38C190.075 133.731 189.196 132.633 187.877 132.083C186.559 131.424 184.471 131.095 181.615 131.095V127.634H211.445V131.095ZM251.962 125.491C255.698 125.491 258.72 126.04 261.027 127.139C263.334 128.238 265.587 129.721 267.784 131.589C268.553 132.248 269.267 132.798 269.927 133.237C270.696 133.677 271.355 133.896 271.904 133.896C273.882 133.896 274.981 131.809 275.201 127.634H278.332L279.486 163.397H276.354C274.926 153.838 272.234 146.037 268.279 139.994C264.323 133.951 259.434 130.93 253.611 130.93C247.787 130.93 242.953 133.622 239.107 139.005C235.262 144.279 232.46 151.146 230.702 159.607C228.944 167.957 228.065 176.857 228.065 186.306C228.065 194.326 228.834 202.292 230.372 210.203C231.911 218.114 234.603 224.871 238.448 230.474C242.404 235.968 247.622 238.715 254.105 238.715C259.269 238.715 262.95 237.451 265.147 234.924C267.345 232.397 268.443 228.442 268.443 223.058V199.161C268.443 196.304 267.839 194.216 266.63 192.898C265.532 191.58 264.103 190.81 262.345 190.591C260.697 190.261 258.5 190.096 255.753 190.096H249.161V185.811H284.1V190.096C282.123 190.096 280.694 190.481 279.815 191.25C279.046 191.909 278.662 193.392 278.662 195.7V237.396C275.255 239.594 271.135 241.462 266.301 243C261.466 244.428 256.412 245.143 251.138 245.143C243.667 245.143 237.349 242.286 232.185 236.572C227.131 230.749 223.341 223.388 220.814 214.488C218.396 205.478 217.188 196.194 217.188 186.635C217.188 176.417 218.451 166.638 220.978 157.299C223.615 147.96 227.571 140.324 232.845 134.391C238.118 128.458 244.491 125.491 251.962 125.491Z" fill="black"/>
<path d="M504.719 74.434C506.367 75.5327 507.191 77.1808 507.191 79.3783C507.191 80.477 506.971 81.4659 506.532 82.3448C505.763 84.1028 504.499 84.9818 502.741 84.9818C501.862 84.9818 500.983 84.6522 500.104 83.9929C499.225 83.4436 498.346 82.6745 497.467 81.6856C496.698 80.6967 495.874 79.6529 494.995 78.5542C492.358 74.9284 489.831 72.1267 487.414 70.1489C487.634 74.3241 488.293 78.5542 489.392 82.8393C490.271 86.5749 490.71 89.2119 490.71 90.7501C490.71 92.5081 490.271 93.9364 489.392 95.0351C488.513 96.1339 487.414 96.6832 486.096 96.6832C484.777 96.6832 483.678 96.1339 482.799 95.0351C481.92 93.9364 481.481 92.5081 481.481 90.7501C481.481 89.2119 481.92 86.5749 482.799 82.8393C484.118 78.5542 484.887 74.2692 485.107 69.9841C482.47 72.1816 479.778 75.0932 477.031 78.719C475.053 81.2461 473.405 83.0041 472.087 83.9929C471.318 84.6522 470.439 84.9818 469.45 84.9818C467.802 84.9818 466.538 84.1028 465.659 82.3448C465.22 81.4659 465 80.477 465 79.3783C465 77.1808 465.824 75.5327 467.472 74.434C468.241 73.8846 469.175 73.4451 470.274 73.1155C471.373 72.676 472.471 72.2915 473.57 71.9619C477.635 70.7532 481.096 69.3249 483.953 67.6768C481.096 66.0287 477.69 64.7102 473.735 63.7214C472.636 63.3918 471.482 63.0621 470.274 62.7325C469.175 62.293 468.241 61.7986 467.472 61.2493C465.824 60.0406 465 58.3376 465 56.1402C465 55.0414 465.165 54.1625 465.494 53.5032C465.934 52.6242 466.483 51.9101 467.143 51.3607C467.912 50.8113 468.681 50.5366 469.45 50.5366C470.439 50.5366 471.318 50.8663 472.087 51.5255C472.966 52.0749 473.79 52.844 474.559 53.8328C475.438 54.8217 476.317 55.8655 477.196 56.9642C480.162 60.6999 482.799 63.5016 485.107 65.3695C484.887 61.1943 484.118 56.9642 482.799 52.6792C481.92 48.9435 481.481 46.3615 481.481 44.9331C481.481 43.1752 481.92 41.7468 482.799 40.6481C483.678 39.5494 484.777 39 486.096 39C487.414 39 488.513 39.5494 489.392 40.6481C490.271 41.7468 490.71 43.1752 490.71 44.9331C490.71 46.0319 490.545 47.2954 490.216 48.7237C489.996 50.0422 489.721 51.3607 489.392 52.6792C488.293 56.9642 487.634 61.1394 487.414 65.2047C489.941 63.1171 492.468 60.3703 494.995 56.9642C495.874 55.8655 496.698 54.8217 497.467 53.8328C498.346 52.844 499.225 52.0749 500.104 51.5255C501.093 50.8663 502.027 50.5366 502.906 50.5366C504.554 50.5366 505.763 51.5255 506.532 53.5032C506.971 54.2723 507.191 55.2062 507.191 56.305C507.191 58.3926 506.367 60.0406 504.719 61.2493C503.51 62.1282 501.423 62.9523 498.456 63.7214C494.611 64.6004 491.26 65.9188 488.403 67.6768C491.369 69.5447 494.721 70.9181 498.456 71.797C499.555 72.1267 500.654 72.5112 501.752 72.9507C502.961 73.3902 503.95 73.8846 504.719 74.434Z" fill="black"/>
</svg>
