<svg width="465" height="371" viewBox="0 0 465 371" fill="none" xmlns="http://www.w3.org/2000/svg">
<path d="M20.4825 217.8C12.9008 164.599 29.4207 121.375 70.0097 88.4092C107.484 56.0204 157.071 35.4953 218.633 26.722L218.685 26.7145L218.737 26.7101C274.934 21.6967 324.331 31.1405 366.835 55.138C409.047 76.2807 435.046 110.359 444.738 157.214L444.75 157.274L444.759 157.336C451.915 207.549 438.168 248.872 403.443 281.033C368.887 313.039 323.654 332.968 267.876 340.917C206.293 349.693 151.505 344.035 103.583 323.838C55.4318 303.545 27.6566 268.141 20.4825 217.8Z" stroke="black" stroke-width="9"/>
<path d="M107.15 131.192C104.843 131.192 103.085 131.467 101.877 132.016C100.778 132.566 100.228 133.829 100.228 135.807C100.228 136.466 100.448 138.005 100.888 140.422L112.424 210.795H112.919L124.95 140.916C125.279 138.938 125.444 137.51 125.444 136.631C125.444 134.324 124.675 132.841 123.137 132.181C121.709 131.522 119.456 131.192 116.38 131.192V127.731H145.551V131.192C142.365 131.192 139.947 131.577 138.299 132.346C136.761 133.005 135.992 134.544 135.992 136.961C135.992 138.059 136.157 139.543 136.487 141.411L150.001 210.795H150.495L162.691 140.587C163.021 139.048 163.186 137.62 163.186 136.302C163.186 134.214 162.416 132.841 160.878 132.181C159.45 131.522 157.198 131.192 154.121 131.192V127.731H179.667V131.192C176.92 131.192 174.832 131.467 173.404 132.016C172.085 132.566 171.042 133.61 170.272 135.148C169.613 136.686 169.009 139.048 168.459 142.235L150.66 245.076H145.881L128.74 154.431H128.411L112.919 245.076H107.975L90.6695 142.07C89.9004 137.675 88.7468 134.763 87.2085 133.335C85.6703 131.907 83.1432 131.192 79.6273 131.192V127.731H107.15V131.192ZM209.351 131.192C207.044 131.192 205.286 131.467 204.078 132.016C202.979 132.566 202.43 133.829 202.43 135.807C202.43 136.466 202.649 138.005 203.089 140.422L214.625 210.795H215.12L227.151 140.916C227.481 138.938 227.645 137.51 227.645 136.631C227.645 134.324 226.876 132.841 225.338 132.181C223.91 131.522 221.657 131.192 218.581 131.192V127.731H247.752V131.192C244.566 131.192 242.149 131.577 240.5 132.346C238.962 133.005 238.193 134.544 238.193 136.961C238.193 138.059 238.358 139.543 238.688 141.411L252.202 210.795H252.696L264.892 140.587C265.222 139.048 265.387 137.62 265.387 136.302C265.387 134.214 264.618 132.841 263.079 132.181C261.651 131.522 259.399 131.192 256.322 131.192V127.731H281.868V131.192C279.121 131.192 277.033 131.467 275.605 132.016C274.286 132.566 273.243 133.61 272.473 135.148C271.814 136.686 271.21 139.048 270.661 142.235L252.861 245.076H248.082L230.942 154.431H230.612L215.12 245.076H210.176L192.871 142.07C192.101 137.675 190.948 134.763 189.41 133.335C187.871 131.907 185.344 131.192 181.828 131.192V127.731H209.351V131.192ZM311.553 131.192C309.245 131.192 307.487 131.467 306.279 132.016C305.18 132.566 304.631 133.829 304.631 135.807C304.631 136.466 304.85 138.005 305.29 140.422L316.826 210.795H317.321L329.352 140.916C329.682 138.938 329.846 137.51 329.846 136.631C329.846 134.324 329.077 132.841 327.539 132.181C326.111 131.522 323.858 131.192 320.782 131.192V127.731H349.953V131.192C346.767 131.192 344.35 131.577 342.701 132.346C341.163 133.005 340.394 134.544 340.394 136.961C340.394 138.059 340.559 139.543 340.889 141.411L354.403 210.795H354.897L367.093 140.587C367.423 139.048 367.588 137.62 367.588 136.302C367.588 134.214 366.819 132.841 365.28 132.181C363.852 131.522 361.6 131.192 358.523 131.192V127.731H384.069V131.192C381.322 131.192 379.234 131.467 377.806 132.016C376.487 132.566 375.444 133.61 374.674 135.148C374.015 136.686 373.411 139.048 372.862 142.235L355.062 245.076H350.283L333.143 154.431H332.813L317.321 245.076H312.377L295.072 142.07C294.303 137.675 293.149 134.763 291.611 133.335C290.072 131.907 287.545 131.192 284.029 131.192V127.731H311.553V131.192Z" fill="black"/>
</svg>
