<svg width="430" height="182" viewBox="0 0 430 182" fill="none" xmlns="http://www.w3.org/2000/svg">
<path d="M89.8488 43.9046C89.0027 33.1837 87.9029 25.611 86.5492 21.1865C85.1956 16.5919 82.6575 13.4437 78.9349 11.7419C75.2124 10.0402 69.1209 9.18934 60.6606 9.18934C57.1073 9.18934 55.3306 11.5718 55.3306 16.3366V156.729C55.3306 163.366 56.4304 167.791 58.6301 170.003C60.999 172.045 64.9754 173.066 70.5592 173.066V178.682H24.6196V173.066C30.2034 173.066 34.0952 172.045 36.2948 170.003C38.4945 167.791 39.5944 163.366 39.5944 156.729V16.3366C39.5944 11.5718 37.8177 9.18934 34.2644 9.18934C25.804 9.18934 19.7126 10.0402 15.99 11.7419C12.2675 13.4437 9.72939 16.5919 8.37573 21.1865C7.02208 25.611 5.92223 33.1837 5.0762 43.9046H0L2.28429 0H92.6407L94.925 43.9046H89.8488Z" fill="black"/>
<path d="M114.199 168.982C119.106 168.982 123.336 166.089 126.889 160.303C130.442 154.347 132.219 147.625 132.219 140.137V110.783C122.744 114.526 115.468 120.142 110.392 127.63C105.315 134.947 102.777 143.115 102.777 152.135C102.777 157.24 103.792 161.324 105.823 164.387C107.853 167.45 110.645 168.982 114.199 168.982ZM161.915 167.45C158.362 172.045 155.147 175.619 152.27 178.171C149.394 180.554 146.517 181.745 143.641 181.745C140.595 181.745 137.972 180.298 135.773 177.405C133.742 174.512 132.558 169.748 132.219 163.111H131.204C125.62 175.704 118.09 182 108.615 182C102.185 182 97.1088 179.192 93.3862 173.576C89.6637 167.961 87.8024 161.409 87.8024 153.921C87.8024 140.818 91.6942 130.012 99.4777 121.504C107.261 112.995 118.175 106.698 132.219 102.614V99.0407C132.219 87.4689 130.781 78.705 127.904 72.7489C125.197 66.6227 121.305 63.5596 116.229 63.5596C113.353 63.5596 110.899 64.4956 108.869 66.3675C107.007 68.2394 106.077 70.792 106.077 74.0252C106.077 75.3866 106.161 76.6629 106.331 77.8541C106.5 79.0453 106.669 80.2366 106.838 81.4278C107.515 84.1505 107.853 86.7882 107.853 89.3408C107.853 92.5741 107.177 95.2118 105.823 97.2539C104.638 99.2959 102.946 100.317 100.747 100.317C98.2086 100.317 96.0935 99.0407 94.4015 96.4881C92.8786 93.9355 92.1172 90.2768 92.1172 85.5119C92.1172 80.2366 93.3862 75.3015 95.9243 70.7069C98.4624 65.942 101.931 62.1131 106.331 59.2202C110.899 56.3273 115.975 54.8808 121.559 54.8808C129.681 54.8808 135.942 58.2842 140.341 65.0912C144.91 71.8981 147.194 81.7681 147.194 94.7013V154.942C147.194 160.218 147.448 164.047 147.955 166.429C148.463 168.812 149.394 170.003 150.747 170.003C151.932 170.003 153.116 169.492 154.301 168.471C155.654 167.28 157.262 165.493 159.123 163.111L161.915 167.45Z" fill="black"/>
<path d="M228.74 61.2623C230.263 63.3044 231.025 65.6868 231.025 68.4095C231.025 71.813 230.263 74.5358 228.74 76.5778C227.387 78.4497 225.779 79.3857 223.918 79.3857C221.38 79.3857 219.349 78.0243 217.827 75.3015C216.473 73.2595 215.035 71.3025 213.512 69.4306C212.158 67.3885 210.635 66.3675 208.943 66.3675C206.236 66.3675 203.698 68.3245 201.329 72.2384C198.96 75.9822 197.014 81.2576 195.491 88.0645C193.968 94.7013 193.207 102.274 193.207 110.783V161.069C193.207 164.813 193.63 167.62 194.476 169.492C195.322 171.194 196.422 172.3 197.776 172.811C199.298 173.151 201.413 173.321 204.121 173.321V178.682H167.065V173.321C169.941 173.321 172.056 173.151 173.41 172.811C174.933 172.3 176.032 171.194 176.709 169.492C177.555 167.791 177.978 164.983 177.978 161.069V82.9593C177.978 78.5348 177.217 75.727 175.694 74.5358C174.34 73.3445 171.718 72.7489 167.826 72.7489V67.3885C177.132 67.3885 184.154 63.3894 188.892 55.3913H193.207V72.2384H194.222C196.422 66.9631 199.468 62.7938 203.359 59.7307C207.251 56.6676 211.312 55.136 215.542 55.136C221.295 55.136 225.695 57.1781 228.74 61.2623Z" fill="black"/>
<path d="M263.683 55.136C265.713 55.136 267.744 55.4764 269.774 56.1571C271.805 56.8378 273.581 57.5185 275.104 58.1992C277.473 59.3904 279.165 59.986 280.181 59.986C281.703 59.986 282.719 58.3693 283.226 55.136H287.795L288.81 93.9355H284.495C283.649 85.9374 281.619 78.8752 278.404 72.7489C275.358 66.6227 270.79 63.5596 264.698 63.5596C260.976 63.5596 258.014 65.0912 255.815 68.1543C253.615 71.2174 252.515 75.1314 252.515 79.8962C252.515 85.5119 253.784 90.7873 256.322 95.7223C259.03 100.487 263.006 105.337 268.251 110.272L280.181 122.014C284.411 126.609 287.541 131.203 289.572 135.798C291.771 140.223 292.871 145.498 292.871 151.624C292.871 159.963 290.671 167.11 286.272 173.066C282.042 178.852 276.289 181.745 269.013 181.745C265.121 181.745 261.822 181.234 259.114 180.213C256.407 179.192 253.784 178.001 251.246 176.64C248.877 175.108 247.27 174.342 246.424 174.342C244.901 174.342 243.801 175.789 243.124 178.682H238.809L236.525 136.819H240.84C243.209 148.731 246.255 157.58 249.977 163.366C253.869 168.982 258.776 171.79 264.698 171.79C268.928 171.79 272.312 170.173 274.851 166.94C277.389 163.706 278.658 159.792 278.658 155.198C278.658 151.284 277.981 147.795 276.627 144.732C275.443 141.669 273.412 138.521 270.536 135.288L257.845 122.78C251.754 117.164 247.185 111.463 244.139 105.677C241.094 99.7214 239.571 93.2548 239.571 86.2777C239.571 77.9392 241.686 70.7069 245.916 64.5806C250.146 58.2842 256.069 55.136 263.683 55.136Z" fill="black"/>
<path d="M387.14 167.195C383.079 172.981 379.61 176.895 376.733 178.937C374.026 180.979 371.065 182 367.85 182C364.297 182 361.336 180.894 358.967 178.682C356.767 176.299 354.737 172.47 352.875 167.195L335.87 118.696L330.032 128.651V161.835C330.032 166.77 330.878 169.918 332.571 171.279C334.263 172.64 337.054 173.321 340.946 173.321V178.682H303.89V173.321C307.951 173.321 310.743 172.64 312.266 171.279C313.958 169.918 314.804 166.77 314.804 161.835V27.568C314.804 23.1435 314.042 20.3357 312.519 19.1445C311.166 17.9533 308.543 17.3576 304.651 17.3576V11.9972C313.958 11.9972 320.98 7.99813 325.718 0H330.032V112.059L331.555 111.804L353.129 75.8121C354.99 72.5788 355.921 70.1113 355.921 68.4095C355.921 65.5166 353.298 63.9 348.053 63.5596V58.4544H380.794V63.5596C375.041 63.5596 370.557 65.2613 367.342 68.6648C364.128 71.8981 359.982 77.8541 354.906 86.533L345.769 102.104L366.581 160.048C368.442 164.302 369.881 167.28 370.896 168.982C372.08 170.513 373.518 171.279 375.211 171.279C376.564 171.279 377.749 170.769 378.764 169.748C379.948 168.556 381.725 166.514 384.094 163.621L387.14 167.195Z" fill="black"/>
<path d="M410.94 14.0393C413.986 14.0393 416.27 15.3156 417.793 17.8682C419.316 20.2506 420.077 23.2286 420.077 26.8022C419.908 30.0355 418.978 32.7583 417.286 34.9706C415.763 37.1828 413.648 38.374 410.94 38.5442C408.064 38.5442 405.864 37.4381 404.341 35.2258C402.818 33.0136 402.057 30.2908 402.057 27.0575C402.057 23.4839 402.818 20.4208 404.341 17.8682C405.864 15.3156 408.064 14.0393 410.94 14.0393ZM418.808 161.069C418.808 164.813 419.231 167.62 420.077 169.492C420.923 171.194 422.023 172.3 423.377 172.811C424.9 173.151 427.015 173.321 429.722 173.321V178.682H392.666V173.321C395.542 173.321 397.658 173.151 399.011 172.811C400.534 172.3 401.634 171.194 402.311 169.492C403.157 167.791 403.58 164.983 403.58 161.069V84.4909C403.58 80.0664 402.818 77.1734 401.296 75.8121C399.773 74.2805 397.15 73.5147 393.427 73.5147V68.1543C402.734 68.1543 409.756 64.1552 414.494 56.1571H418.808V161.069Z" fill="black"/>
</svg>
