<svg width="126" height="168" viewBox="0 0 126 168" fill="none" xmlns="http://www.w3.org/2000/svg">
<path d="M62.1689 2C82.7689 2 98.3785 10.6399 108.725 27.8477L109.2 28.5967C119.108 44.3766 124 63.9154 124 87.0986V87.1514L123.997 87.2041C122.872 108.579 116.676 126.701 105.326 141.47C95.0026 156.353 80.602 164.402 62.2939 165.546L62.2314 165.55H62.1689C42.7352 165.55 27.6908 158.071 17.3135 143.082C7.06671 128.281 2.00003 110.136 2 88.7607C2 65.2037 7.05055 44.8881 17.2432 27.9004C27.5636 10.6999 42.6063 2.00002 62.1689 2Z" fill="black" stroke="white" stroke-width="4"/>
</svg>
