<svg width="350" height="472" viewBox="0 0 350 472" fill="none" xmlns="http://www.w3.org/2000/svg">
<path d="M172.083 0C231.083 0 275.333 24.5833 304.833 73.7499C334.333 119.639 349.083 177 349.083 245.833C345.806 308.111 327.778 360.556 295 403.167C265.5 445.778 224.528 468.722 172.083 472C116.361 472 73.75 450.694 44.25 408.083C14.75 365.472 0 313.028 0 250.75C0 181.917 14.75 122.917 44.25 73.7499C73.75 24.5833 116.361 0 172.083 0Z" fill="black"/>
<path d="M245.083 161.024C243.686 143.422 241.87 130.989 239.635 123.724C237.4 116.18 233.209 111.011 227.062 108.217C220.915 105.423 210.857 104.026 196.886 104.026C191.019 104.026 188.085 107.938 188.085 115.761V346.268C188.085 357.165 189.901 364.43 193.534 368.062C197.445 371.415 204.011 373.091 213.232 373.091V382.311H137.374V373.091C146.594 373.091 153.02 371.415 156.652 368.062C160.285 364.43 162.101 357.165 162.101 346.268V115.761C162.101 107.938 159.167 104.026 153.3 104.026C139.329 104.026 129.271 105.423 123.124 108.217C116.977 111.011 112.786 116.18 110.551 123.724C108.316 130.989 106.5 143.422 105.103 161.024H96.7205L100.492 88.9384H249.694L253.466 161.024H245.083Z" fill="white"/>
</svg>
